<?xml version="1.0" encoding="UTF-8" standalone="no"?>
<!-- Created with Inkscape (http://www.inkscape.org/) -->

<svg
   version="1.1"
   id="svg9"
   width="94.080002"
   height="92.160004"
   viewBox="0 0 94.080002 92.160004"
   sodipodi:docname="aalogo_ring.svg"
   inkscape:version="1.1 (c4e8f9ed74, 2021-05-24)"
   xmlns:inkscape="http://www.inkscape.org/namespaces/inkscape"
   xmlns:sodipodi="http://sodipodi.sourceforge.net/DTD/sodipodi-0.dtd"
   xmlns="http://www.w3.org/2000/svg"
   xmlns:svg="http://www.w3.org/2000/svg">
  <defs
     id="defs13" />
  <sodipodi:namedview
     id="namedview11"
     pagecolor="#ffffff"
     bordercolor="#666666"
     borderopacity="1.0"
     inkscape:pageshadow="2"
     inkscape:pageopacity="0.0"
     inkscape:pagecheckerboard="0"
     showgrid="false"
     inkscape:zoom="8.474392"
     inkscape:cx="14.514316"
     inkscape:cy="46.080002"
     inkscape:window-width="2490"
     inkscape:window-height="1021"
     inkscape:window-x="0"
     inkscape:window-y="0"
     inkscape:window-maximized="1"
     inkscape:current-layer="g15" />
  <g
     inkscape:groupmode="layer"
     inkscape:label="Image"
     id="g15">
    <path
       style="fill:#000000;stroke-width:0.096"
       d="m 48.777227,90.259333 c -0.802226,-1.0164 -1.517412,-1.895325 -1.589303,-1.953166 -0.07719,-0.06211 -0.848819,-0.129714 -1.884648,-0.16512 C 38.887397,87.921736 32.046382,86.186916 26.157017,83.285727 21.213173,80.850318 17.445025,78.162273 13.637711,74.354958 9.1761818,69.893429 6.0405278,65.164161 3.8170058,59.543133 1.9512548,54.826547 1.0379488,50.310258 0.90905276,45.163331 0.81209276,41.291517 1.2072228,37.676023 2.1278098,34.011611 l 0.208948,-0.831719 -0.814999,-1.136281 c -0.448249,-0.624954 -0.88743004,-1.279973 -0.97595804,-1.455596 -0.147581,-0.292772 -0.148287,-0.338656 -0.0085,-0.552 0.271222,-0.413937 0.51646804,-0.301549 1.41597804,0.64889 0.565791,0.597825 0.851732,0.838538 0.8848,0.744849 1.206199,-3.417482 2.184043,-5.628241 3.585567,-8.106424 0.710855,-1.256938 2.72874,-4.240153 3.6657022,-5.419329 7.495351,-9.4329584 18.575368,-15.6823229 30.723989,-17.32898127 2.587776,-0.3507544 4.05262,-0.4468378 6.816,-0.4470811 2.510561,-2.211e-4 4.142468,0.100534 6.528,0.4030431 C 64.133561,1.7960658 73.889003,6.4248571 80.903685,13.221668 l 1.166571,1.130339 2.195542,-2.271439 c 1.625435,-1.681625 2.188609,-2.3235035 2.168844,-2.4719458 -0.08496,-0.6380828 0.652258,-1.1988613 1.266294,-0.9632335 0.242639,0.093109 0.07417,0.2286945 -0.212835,0.1712932 -0.423664,-0.084733 -0.785894,0.2643153 -0.790377,0.7616152 -0.0035,0.3926832 -0.05233,0.4509999 -2.343447,2.8010329 l -2.339831,2.4 -1.088554,-1.063232 C 74.068316,7.0180412 64.76199,2.4526188 55.019226,1.0070133 52.410486,0.61993523 50.652741,0.49551753 47.725338,0.49073283 c -2.882784,-0.00471 -4.31764,0.085566 -6.816,0.4288454 C 30.574104,2.33966 21.131041,6.9711031 13.926865,14.153397 8.9893838,19.075881 5.4183428,24.810828 3.3151818,31.19533 c -0.226112,0.6864 -0.426413,1.248 -0.445115,1.248 -0.0187,0 -0.427452,-0.455738 -0.908336,-1.012751 -1.02896404,-1.19186 -1.15457504,-1.307468 -1.28207004,-1.179973 -0.09706,0.09706 0.66030604,1.265393 1.55046804,2.391783 l 0.460778,0.583058 -0.185307,0.712942 c -0.847833,3.261899 -1.244263,6.544422 -1.244263,10.302752 0,3.505948 0.356883,6.516436 1.157631,9.765196 1.201648,4.875272 3.194887,9.346505 6.052769,13.577564 4.2872702,6.347251 10.2119182,11.543408 17.1736012,15.061946 6.113543,3.089876 12.422928,4.758234 19.507239,5.158196 l 2.044761,0.115442 1.584,1.997258 c 1.443387,1.819961 1.73059,2.140415 1.726685,1.92659 -7.68e-4,-0.0396 -0.688393,-0.936 -1.528157,-1.992 l -1.526842,-1.92 1.552157,-0.06614 c 7.645606,-0.325805 14.048556,-1.92989 20.403588,-5.111565 4.675139,-2.340628 8.263545,-4.929834 11.972286,-8.638576 2.489347,-2.489347 3.95634,-4.273906 5.728052,-6.968029 5.376569,-8.17579 7.705031,-17.567169 6.735851,-27.167689 C 92.953675,31.150447 89.192752,22.751348 83.076817,15.93133 l -0.774803,-0.864 0.881494,-0.912 c 0.484822,-0.5016 1.553429,-1.60947 2.374682,-2.461934 1.274895,-1.323347 1.52756,-1.543363 1.728306,-1.504988 0.150136,0.0287 0.332058,-0.03131 0.503308,-0.16601 0.218439,-0.1718238 0.262747,-0.2740993 0.238862,-0.5513459 -0.01794,-0.2082772 0.01686,-0.3557848 0.08967,-0.380056 0.115363,-0.038455 0.160445,0.1780751 0.124987,0.6003333 -0.02328,0.2772855 -0.539299,0.7199996 -0.839213,0.7199996 -0.246676,0 -0.997728,0.733354 -4.048428,3.953028 l -0.607385,0.641027 1.023206,1.182973 c 5.444891,6.29507 8.846195,13.486314 10.128704,21.414722 0.661171,4.087327 0.660041,9.01168 -0.003,13.128252 -2.592242,16.09399 -14.359699,29.524836 -30.619855,34.948129 -4.557156,1.51996 -9.647321,2.438836 -13.848,2.499838 -0.5676,0.0082 -1.031511,0.04222 -1.030914,0.07551 5.76e-4,0.03329 0.585481,0.794662 1.299743,1.691942 l 1.298657,1.631418 -0.315743,0.262 c -0.173658,0.1441 -0.344885,0.263161 -0.380502,0.264582 -0.03562,0.0014 -0.721125,-0.829018 -1.523352,-1.845418 z M 44.616737,87.39106 C 34.027894,86.753196 23.925473,82.607951 16.092961,75.687129 14.862589,74.599971 12.655384,72.350666 11.645768,71.155111 5.8589818,64.302592 2.4652488,56.133801 1.7329778,47.294808 c -0.143345,-1.730274 -0.05897,-6.23268 0.147893,-7.891477 0.223939,-1.795767 0.784813,-4.765878 1.065793,-5.643919 0.02181,-0.06815 0.466606,0.407045 0.988435,1.056 1.868498,2.323696 3.56504,4.254322 6.6888592,7.611766 0.687842,0.739284 2.569486,2.985753 4.181432,4.992153 1.611945,2.0064 3.246655,4.0368 3.632687,4.512 3.266841,4.021432 28.265142,35.347566 28.311261,35.477704 0.03556,0.100342 -0.201674,0.09834 -2.132601,-0.01798 z m 1.572601,-0.329074 c 0,-0.02934 -0.333008,-0.472142 -0.740018,-0.984 C 24.868807,60.195745 12.039731,44.247188 10.336577,42.427331 7.5879278,39.49034 5.6506738,37.293155 4.0032378,35.244216 c -0.520111,-0.64687 -0.780341,-0.903186 -0.828458,-0.816 -0.03858,0.06991 -0.158369,0.537515 -0.266188,1.039115 -1.569104,7.299843 -1.162611,14.66022 1.197718,21.687117 1.767124,5.260876 4.612083,10.139731 8.4580912,14.504884 7.500615,8.51307 18.510268,14.072249 30.120937,15.209169 2.24509,0.21984 3.504,0.289355 3.504,0.193485 z m -6.864,-9.330738 c -4.2768,-5.3707 -7.776,-9.793601 -7.776,-9.82867 0,-0.07261 0.477373,-0.579878 3.827558,-4.067246 1.318797,-1.3728 2.471731,-2.576227 2.562074,-2.67428 0.1592,-0.172788 0.236314,-0.155872 2.503314,0.549111 2.947747,0.916679 5.507358,1.631531 8.627054,2.409375 2.660344,0.663312 6.45081,1.504984 6.510205,1.44559 0.09889,-0.09889 -0.114514,-0.223002 -0.484077,-0.281543 -1.52627,-0.241769 -7.352096,-1.658069 -10.634128,-2.585231 -2.316182,-0.654313 -5.977741,-1.783817 -6.064045,-1.870613 -0.03522,-0.03543 1.519976,-1.710587 3.456,-3.722581 8.016228,-8.330787 11.090598,-11.511275 11.151579,-11.536497 0.03546,-0.01467 0.113379,0.136532 0.17315,0.336 0.241525,0.806023 1.074851,1.778084 1.263137,1.47343 0.113905,-0.184302 -0.05061,-0.778086 -0.462742,-1.670138 l -0.370562,-0.802078 0.636184,-0.663272 c 4.783294,-4.986981 7.927419,-8.18988 7.980525,-8.129708 0.03613,0.04094 0.186113,0.410718 0.333296,0.821732 0.178058,0.497239 0.361732,0.826504 0.548906,0.984 0.25533,0.214845 0.650572,0.323026 0.650572,0.178066 0,-0.03225 -0.110635,-0.660013 -0.245857,-1.395028 -0.13522,-0.735015 -0.23242,-1.461611 -0.216,-1.614658 0.02997,-0.279333 1.098393,-1.420349 8.812882,-9.411679 1.299758,-1.3464 4.042905,-4.1976 6.095883,-6.336 2.052978,-2.1384 3.763473,-3.900932 3.801097,-3.916736 0.03762,-0.0158 0.481906,0.437796 0.98729,1.008 4.971524,5.609168 8.405081,12.409626 9.841395,19.491743 1.45351,7.1669 1.026816,14.232128 -1.279918,21.192994 -1.17747,3.553165 -2.694232,6.692119 -4.708365,9.744001 -6.303233,9.550874 -16.083931,16.37472 -27.506203,19.190663 -3.693048,0.910449 -7.947716,1.451833 -11.374204,1.447304 l -0.864,-0.0011 z m 13.296,9.141548 C 65.607912,85.51782 77.295235,79.046627 84.905839,68.99708 91.803767,59.8886 94.630138,48.471968 92.74271,37.34141 91.734067,31.393229 89.344485,25.61413 85.807783,20.569594 84.432522,18.608004 82.215505,15.93133 81.966036,15.93133 c -0.06828,0 -2.389565,2.35236 -5.158418,5.227467 -13.115925,13.619243 -13.33828,13.853905 -13.33828,14.076613 0,0.120526 0.109667,0.812916 0.243704,1.538644 0.134037,0.725727 0.221793,1.376603 0.195013,1.446391 -0.0748,0.194924 -0.470529,0.150959 -0.83252,-0.09249 -0.247989,-0.166781 -0.393405,-0.391191 -0.606521,-0.936 -0.154177,-0.394141 -0.29014,-0.730183 -0.302138,-0.74676 -0.02448,-0.03382 -2.145995,2.130725 -5.841834,5.960334 l -2.480416,2.570196 0.363986,0.789805 c 0.218304,0.473693 0.3817,0.991526 0.408244,1.293805 0.04418,0.503068 0.04374,0.504 -0.236147,0.504 -0.345388,0 -0.867986,-0.513419 -1.200956,-1.179862 l -0.229758,-0.459862 -2.054924,2.139862 c -1.130208,1.176925 -3.225325,3.349462 -4.655814,4.827862 -5.805049,5.999476 -7.371234,7.638685 -7.333985,7.675935 0.06901,0.06901 4.102953,1.299158 6.036066,1.840698 3.178291,0.890363 7.596828,1.965878 10.396043,2.530501 0.444039,0.08957 0.547357,0.144458 0.512923,0.272512 -0.02372,0.08819 -0.06956,0.279155 -0.101872,0.424355 -0.03553,0.15965 -0.122364,0.264 -0.219688,0.264 -0.278991,0 -4.878058,-1.045087 -7.179406,-1.63144 -2.676324,-0.681892 -6.665647,-1.825954 -8.688,-2.491554 l -1.488,-0.489732 -1.248,1.286854 c -0.6864,0.707769 -2.079125,2.15025 -3.094943,3.205513 l -1.846943,1.918658 7.745128,9.723254 7.745129,9.723254 1.829814,-0.05804 c 1.006398,-0.03193 2.499415,-0.127908 3.317815,-0.213298 z M 25.242441,60.11034 c -3.257593,-4.076055 -7.242793,-9.048488 -8.856,-11.04985 -1.613207,-2.001363 -2.933104,-3.658992 -2.933104,-3.68362 0,-0.02463 0.663444,0.600817 1.47432,1.389873 7.157311,6.964726 13.133744,10.804705 20.969268,13.473178 0.965573,0.328837 1.743173,0.629761 1.728,0.668722 -0.04744,0.121822 -6.332488,6.622962 -6.397727,6.617697 -0.03402,-0.0027 -2.727164,-3.339947 -5.984757,-7.416 z m 6.502789,6.532992 c 0.151595,-0.1716 1.411536,-1.485992 2.799868,-2.92087 1.388332,-1.434879 2.523966,-2.644479 2.523632,-2.688 -2.88e-4,-0.04352 -0.551134,-0.266449 -1.224,-0.495395 -6.460134,-2.198091 -12.04395,-5.483062 -17.478604,-10.282704 -0.492366,-0.434835 -0.909824,-0.775854 -0.927684,-0.757821 -0.01786,0.01803 0.629592,0.853589 1.438784,1.856789 0.809192,1.0032 3.94825,4.92138 6.975685,8.707065 3.027435,3.785686 5.529686,6.885287 5.560558,6.888001 0.03087,0.0027 0.180164,-0.135465 0.331761,-0.307065 z m 3.836108,-6.731583 c -4.158381,-1.437441 -7.49195,-3.078107 -10.944,-5.386255 -3.565719,-2.384148 -6.309702,-4.693872 -10.545261,-8.876376 -1.608644,-1.588495 -2.620369,-2.690359 -3.795618,-4.133787 -0.8812982,-1.0824 -2.8292772,-3.4584 -4.3288432,-5.28 -1.558879,-1.89365 -2.721039,-3.387242 -2.713768,-3.487696 0.007,-0.09663 0.193851,-0.723032 0.415239,-1.392 C 6.4367278,22.992646 11.710582,15.754811 19.069337,10.220337 33.270841,-0.46052397 53.115312,-2.1663764 69.243678,5.9072963 c 4.214519,2.1097391 8.566509,5.2181167 11.592288,8.2797067 l 0.902627,0.91331 -1.42848,1.489655 c -0.785665,0.819311 -1.43786,1.480276 -1.449323,1.468813 -0.01146,-0.01146 0.01894,-0.192429 0.06756,-0.402146 0.186515,-0.804467 0.0627,-3.154682 -0.133744,-2.538614 -0.02478,0.07772 -0.07036,0.418221 -0.101298,0.756668 -0.181014,1.980609 -1.335574,1.490291 -2.115296,-0.898322 l -0.248443,-0.761084 0.350707,-0.359158 0.350708,-0.359157 -0.171163,-0.726819 c -0.163615,-0.694765 -0.252358,-0.841369 -0.382167,-0.631336 -0.03246,0.05252 -0.139965,0.138809 -0.238908,0.191762 -0.161797,0.08659 -0.190806,0.04076 -0.288323,-0.455484 -0.171191,-0.871161 -0.175347,-0.876547 -0.440124,-0.570409 -0.257251,0.297436 -0.289848,0.619715 -0.127781,1.263344 0.102856,0.40848 0.09648,0.428732 -0.288491,0.915752 -0.216519,0.273919 -0.419544,0.601113 -0.451163,0.727097 -0.06103,0.243162 0.09923,1.049476 0.256246,1.289291 0.08103,0.123754 0.1076,0.119605 0.195982,-0.03061 0.154143,-0.261979 0.67208,-0.834229 0.755051,-0.834229 0.08652,0 0.360392,1.333871 0.448418,2.184 0.07042,0.680132 0.225475,0.809961 0.2293,0.192 l 0.0025,-0.408 0.376717,0.709781 c 0.420286,0.79187 0.817068,1.258219 1.070527,1.258219 0.09261,0 0.190343,0.03555 0.217195,0.07899 0.04017,0.06499 -4.548704,4.931908 -6.667908,7.071916 -0.566637,0.5722 -0.568867,0.573334 -0.47345,0.240634 0.113297,-0.395046 0.130113,-2.591543 0.01984,-2.591543 -0.04181,0 -0.145222,0.366509 -0.229791,0.814465 -0.185668,0.983461 -0.418593,1.463564 -0.854531,1.76135 -0.646854,0.441859 -1.528523,-0.0347 -1.526924,-0.82533 8.64e-4,-0.405545 0.177947,-1.577157 0.249211,-1.648421 0.02574,-0.02574 0.132989,0.007 0.238336,0.07282 0.307861,0.192263 0.404428,0.04713 0.332143,-0.499186 -0.139369,-1.053332 -0.582544,-1.589138 -1.089843,-1.317639 -0.431125,0.23073 -0.720372,2.105955 -0.514768,3.337292 0.09012,0.53969 0.14643,0.638284 0.644593,1.128552 0.415078,0.408499 0.669548,0.573159 1.062163,0.687295 0.288027,0.08373 0.612066,0.120293 0.732877,0.08269 l 0.216563,-0.06741 -0.192,0.225636 c -0.766953,0.901313 -6.910075,7.183185 -6.966004,7.123341 -0.03879,-0.0415 -0.114484,-0.538127 -0.168215,-1.103608 -0.05373,-0.565482 -0.133709,-1.083882 -0.177735,-1.152 -0.04544,-0.07031 -0.100794,0.557466 -0.128046,1.45232 -0.03362,1.104046 -0.08251,1.587623 -0.163215,1.614405 -0.13205,0.04382 -0.528718,-1.179443 -1.002725,-3.092253 -0.32332,-1.304729 -0.536397,-1.682324 -0.949337,-1.682324 -0.195723,0 -0.200772,0.02631 -0.124363,0.648 0.0438,0.3564 0.07412,1.3176 0.06737,2.136 -0.01394,1.689392 -0.146154,2.332112 -0.490002,2.381952 -0.329169,0.04771 -0.471739,-0.378052 -0.540443,-1.613952 -0.07091,-1.275516 -0.187944,-1.782278 -0.443169,-1.91887 -0.475543,-0.254502 -0.674111,0.01702 -0.674111,0.921775 0,0.704032 0.221419,2.03731 0.390943,2.354068 0.235333,0.439725 0.880813,0.94857 1.391667,1.097079 0.908594,0.264136 0.948736,0.193093 1.063392,-1.882003 l 0.082,-1.484049 0.370192,1.265427 c 0.203605,0.695984 0.354805,1.309678 0.336,1.363761 -0.03348,0.09628 -6.147403,6.449897 -6.661647,6.922813 l -0.260973,0.24 0.160639,-0.315788 c 0.209352,-0.411551 0.422272,-2.476129 0.270968,-2.627433 -0.07705,-0.07705 -0.122019,-0.0046 -0.165537,0.266717 -0.179069,1.116374 -0.454098,1.710563 -0.902947,1.95078 -0.160943,0.08613 -0.180963,0.0037 -0.276603,-1.139493 -0.07238,-0.865069 -0.164635,-1.375382 -0.309564,-1.712279 -0.23479,-0.545784 -0.694295,-1.039714 -0.867605,-0.932603 -0.286524,0.177082 -0.482053,0.921626 -0.583943,2.223567 -0.0571,0.729592 -0.116698,1.340053 -0.132444,1.35658 -0.09214,0.0967 -0.739431,-2.205665 -0.855052,-3.041359 -0.15683,-1.133532 -0.264708,-1.328231 -0.545516,-0.98455 -0.318296,0.389562 -0.319396,0.664727 -0.0094,2.357263 0.165054,0.901228 0.350154,2.038198 0.411334,2.526598 0.06118,0.4884 0.149295,0.888 0.195811,0.888 0.04652,0 0.062,-0.162 0.03441,-0.36 -0.02759,-0.198 -0.115421,-0.9 -0.195172,-1.56 -0.07975,-0.66 -0.165145,-1.3296 -0.189761,-1.488 -0.121724,-0.783237 1.128642,2.47767 1.541311,4.019681 l 0.233458,0.872353 -0.262968,0.311614 c -0.366261,0.434015 -6.971442,7.303766 -7.033393,7.315115 -0.02773,0.0051 -0.03366,-0.443611 -0.01317,-0.997092 0.03744,-1.011303 -0.01534,-1.489671 -0.164349,-1.489671 -0.04416,0 -0.106688,0.282696 -0.138953,0.628215 -0.188033,2.013609 -1.277764,1.640856 -2.091802,-0.715522 l -0.312058,-0.903308 0.370764,-0.311274 0.370764,-0.311276 -0.125279,-0.561417 c -0.0689,-0.30878 -0.164448,-0.664907 -0.212321,-0.791393 l -0.08704,-0.229974 -0.24212,0.227458 c -0.293551,0.275777 -0.379674,0.183821 -0.474661,-0.506811 -0.07605,-0.552985 -0.207693,-0.662267 -0.444892,-0.369338 -0.201973,0.249427 -0.224527,0.688701 -0.0674,1.312713 0.107066,0.425195 0.102896,0.43954 -0.228649,0.786511 -0.402987,0.421736 -0.552405,0.692765 -0.552405,1.002004 0,0.229307 0.273273,1.127412 0.343047,1.127412 0.02035,0 0.21619,-0.1944 0.435202,-0.432 0.219012,-0.2376 0.429991,-0.432 0.46884,-0.432 0.07925,0 0.348046,1.292117 0.444351,2.136 0.07042,0.617084 0.227959,0.748789 0.229659,0.192 l 0.0011,-0.36 0.344084,0.624 c 0.370094,0.671172 0.862132,1.248 1.06455,1.248 0.06884,0 0.125168,0.03317 0.125168,0.07372 0,0.04054 -0.458002,0.526543 -1.017784,1.08 -0.710412,0.702385 -0.97146,0.913729 -0.864392,0.69981 0.272896,-0.545242 0.459685,-2.444043 0.252991,-2.571786 -0.05125,-0.03167 -0.112359,0.04137 -0.135792,0.162334 -0.248938,1.284979 -0.276011,1.358029 -0.647286,1.746528 l -0.375959,0.393398 0.06192,-0.822816 c 0.111523,-1.481997 -0.282684,-2.225879 -1.497697,-2.826196 -0.2904,-0.143481 -0.60279,-0.326714 -0.694199,-0.407181 -0.135026,-0.118863 -0.193548,-0.123608 -0.312,-0.0253 -0.18556,0.154002 -0.18576,0.48426 -5.76e-4,0.886238 0.08983,0.194958 0.194463,0.954727 0.274198,1.991052 l 0.128935,1.675794 0.363802,0.314482 c 0.200091,0.172966 0.510755,0.342051 0.690364,0.375745 0.382831,0.07182 1.070172,-0.02164 1.248674,-0.169781 0.06862,-0.05695 0.122995,-0.06585 0.120834,-0.01979 -0.0022,0.04606 -0.886167,0.990954 -1.964459,2.099755 l -1.960531,2.016 -0.0035,-5.303611 -0.0035,-5.30361 0.59057,0.475886 c 0.888119,0.715655 1.850081,1.094264 2.19343,0.863291 0.223875,-0.150603 -0.649603,-0.903003 -1.783195,-1.536016 l -0.952758,-0.532058 -0.02429,-15.268797 c -0.02414,-15.170205 -0.02305,-15.269922 0.168,-15.442821 0.405256,-0.366753 0.134722,-1.104266 -0.405067,-1.104266 -0.242826,0 -0.554639,0.343528 -0.554639,0.611053 0,0.12488 0.0864,0.336894 0.192,0.471142 0.184368,0.234386 0.192,0.389451 0.192,3.900947 0,2.373905 -0.03368,3.656858 -0.096,3.656858 -0.0528,0 -0.096,-0.03961 -0.096,-0.08803 0,-0.147531 -1.450579,-1.639966 -1.593973,-1.639966 -0.195041,0 -0.170127,0.06711 0.190018,0.511843 0.384336,0.474609 0.635955,0.946305 0.635955,1.19219 0,0.692383 -1.372373,0.493779 -2.923419,-0.423065 l -0.475419,-0.281026 0.02572,-0.48459 0.02572,-0.48459 -0.612994,-0.399381 c -0.337147,-0.219659 -0.663982,-0.399381 -0.726301,-0.399381 -0.06232,0 -0.113307,0.1296 -0.113307,0.288 0,0.1584 -0.0354,0.288 -0.07866,0.288 -0.04326,0 -0.313264,-0.175461 -0.6,-0.389913 l -0.521338,-0.389912 -0.03059,0.300706 c -0.04,0.393264 0.179975,0.713882 0.728456,1.061718 0.30151,0.191212 0.44897,0.352205 0.456122,0.497981 0.0058,0.118481 0.01854,0.395705 0.02829,0.616054 0.02113,0.477803 0.344497,0.909295 0.889973,1.187576 0.202455,0.103284 0.402221,0.18788 0.443924,0.187992 0.0417,9.6e-5 0.06112,-0.285653 0.04314,-0.635031 -0.02627,-0.51064 -0.0074,-0.620449 0.096,-0.559864 0.444965,0.260614 1.066582,0.710776 1.5371,1.113136 0.599148,0.512357 0.948507,0.633611 0.51158,0.177557 -0.151757,-0.1584 -0.255407,-0.288 -0.230333,-0.288 0.02507,0 0.42955,0.133907 0.898837,0.297571 0.637551,0.222346 0.946056,0.28273 1.220373,0.238866 l 0.367123,-0.05871 -0.003,1.129135 -0.003,1.129134 -0.208654,-0.288 c -0.373419,-0.515419 -1.479777,-1.611211 -1.58829,-1.573119 -0.06061,0.02128 0.05768,0.279723 0.277167,0.605536 0.444562,0.659937 0.459646,0.952283 0.05154,0.998956 -0.405272,0.04635 -0.791713,-0.148966 -1.624133,-0.820864 -0.746759,-0.602756 -0.963611,-0.681875 -1.485548,-0.542001 -0.1188,0.03184 -0.216,0.129219 -0.216,0.216404 0,0.394026 1.181639,1.805847 2.304492,2.753404 0.767185,0.647416 0.901952,0.860119 0.614782,0.970316 -0.229859,0.08821 -0.70277,-0.175736 -1.477535,-0.824642 -0.383488,-0.321194 -0.75214,-0.58399 -0.819224,-0.58399 -0.126968,0 -0.238511,0.205575 -0.238511,0.439576 0,0.230292 0.65566,0.876524 1.327908,1.308814 0.617639,0.397172 0.667031,0.41161 1.408092,0.41161 0.812888,0 1.317375,-0.163402 1.371454,-0.444213 0.01909,-0.09915 -0.221929,-0.339208 -0.670826,-0.668141 -0.854516,-0.626152 -2.06153,-1.768389 -2.248307,-2.127646 -0.07549,-0.1452 -0.117238,-0.264 -0.09278,-0.264 0.02446,0 0.510257,0.259023 1.079546,0.575605 1.123834,0.624967 1.555031,0.755963 1.971249,0.598858 l 0.26966,-0.101785 -0.005,2.271661 c -0.0048,2.155725 -0.01323,2.259413 -0.165553,2.031661 -0.288691,-0.43164 -1.490478,-1.632 -1.633939,-1.632 -0.09952,0 -0.06671,0.09033 0.113336,0.312 0.52571,0.647242 0.82536,1.258776 0.82629,1.686312 0.0012,0.533886 -0.11532,0.74049 -0.491398,0.871591 -0.547455,0.190843 -0.598117,0.153932 -1.073193,-0.781902 -0.715866,-1.410169 -1.413766,-2.088001 -2.149812,-2.088001 -0.378462,0 -0.508863,0.159024 -0.507753,0.6192 0.002,0.823435 0.889867,2.149935 1.878331,2.806238 0.875093,0.581029 2.296273,0.638367 2.956198,0.119269 l 0.252533,-0.198642 -0.0011,1.326968 -0.0011,1.326968 -0.258937,-0.336 c -0.473703,-0.614684 -1.434325,-1.56288 -1.545163,-1.525177 -0.06408,0.0218 0.06588,0.288695 0.314179,0.6452 0.393746,0.565347 0.72405,1.30737 0.72405,1.62657 0,0.273234 -0.303204,0.765515 -0.537143,0.872105 -0.608343,0.277179 -1.10696,0.01765 -1.812393,-0.943341 -0.405866,-0.552904 -0.433752,-0.771357 -0.09846,-0.771357 0.132,0 0.24,-0.03872 0.24,-0.08606 0,-0.133362 -0.635182,-0.659259 -1.054845,-0.873355 -0.514917,-0.262691 -0.824607,-0.247719 -1.019204,0.04927 -0.151805,0.231685 -0.145747,0.267716 0.143962,0.856198 0.201909,0.410137 0.556472,0.871118 1.06671,1.38687 0.838591,0.847657 1.226715,1.100008 1.562295,1.015783 0.121317,-0.03045 0.3419,-0.0092 0.490185,0.04714 0.338006,0.128511 0.919314,-0.01016 1.426897,-0.340374 l 0.36,-0.234207 -0.003,1.321363 -0.003,1.321362 -0.209828,-0.288 c -0.366777,-0.503422 -1.345603,-1.488 -1.479306,-1.488 -0.180899,0 -0.166032,0.04624 0.159217,0.495235 0.367985,0.507989 0.388149,0.970718 0.0519,1.191037 -0.330309,0.216427 -0.733973,0.106374 -1.47771,-0.402874 -0.33688,-0.230669 -0.658421,-0.419398 -0.714533,-0.419398 -0.171216,0 -0.739654,0.226409 -0.739654,0.294605 0,0.03522 0.4644,0.409745 1.032,0.832282 1.143841,0.851505 1.947549,1.648727 2.20373,2.185944 0.162839,0.341478 0.162301,0.357935 -0.01595,0.488279 -0.237128,0.173392 -0.661231,0.172164 -0.999758,-0.0029 -0.592369,-0.306325 -1.374483,-1.442234 -2.147093,-3.118342 -0.208872,-0.45313 -0.393114,-0.837858 -0.409425,-0.854952 -0.01631,-0.01709 -0.168614,0.04078 -0.338448,0.128603 -0.293585,0.151819 -0.305952,0.180396 -0.25114,0.580296 0.131086,0.956373 1.015469,2.432612 2.043013,3.41026 0.558053,0.530954 0.570322,0.536669 1.283257,0.597815 0.647368,0.05552 0.7706,0.03706 1.224361,-0.183407 0.966117,-0.469405 0.885804,-0.752803 -0.587906,-2.074526 -0.546991,-0.490579 -0.983846,-0.90492 -0.970788,-0.920757 0.01306,-0.01584 0.298782,0.06539 0.634946,0.180511 0.336163,0.115118 0.859605,0.214057 1.163205,0.219865 l 0.552,0.01056 -0.0026,2.400931 -0.0026,2.40093 -0.866371,-0.888 c -0.476504,-0.4884 -0.907347,-0.888 -0.95743,-0.888 -0.137152,0 -0.109419,0.153254 0.05197,0.287196 0.171821,0.142598 1.10497,1.390449 1.10497,1.477617 0,0.03373 -0.3348,-0.106527 -0.744,-0.311685 -1.519637,-0.761891 -3.215451,-1.46358 -3.466759,-1.434466 -0.233259,0.02702 -0.251771,0.06189 -0.234609,0.441937 0.01177,0.260674 0.203598,0.821828 0.520964,1.523987 0.526776,1.165467 0.592355,1.234205 1.361719,1.427303 0.351029,0.0881 0.337739,0.0016 -0.173315,-1.12844 -0.2376,-0.525367 -0.432,-1.043718 -0.432,-1.151892 0,-0.170622 0.04388,-0.189558 0.33123,-0.142928 0.314027,0.05096 3.133953,1.324079 3.38877,1.529937 0.0867,0.07005 0.12,0.511352 0.12,1.590469 v 1.493525 l -0.345797,-0.403986 c -0.449483,-0.525123 -1.357051,-1.26257 -1.55383,-1.26257 -0.111989,0 -0.07289,0.08516 0.143258,0.312 0.414194,0.434691 0.796375,1.025905 0.796375,1.231953 0,0.09524 -0.09601,0.24041 -0.213361,0.322604 -0.608788,0.426411 -2.116213,-0.0853 -4.473184,-1.518468 -1.702935,-1.035478 -2.25087,-1.249943 -2.609455,-1.021351 -0.343728,0.21912 0.418321,0.794983 2.376,1.795488 0.6996,0.357542 1.272,0.676614 1.272,0.709047 0,0.03243 -0.0864,0.13716 -0.192,0.232727 -0.278074,0.251653 -0.238028,0.601648 0.160537,1.403102 0.46923,0.943551 1.53146,2.032103 2.143887,2.197013 0.773807,0.208365 2.303576,-0.303063 2.303576,-0.770124 0,-0.189626 -1.006442,-1.26878 -1.872,-2.007248 l -0.48,-0.40952 0.48,0.08139 c 0.264,0.04476 0.836404,0.08139 1.272009,0.08139 h 0.79201 l -1e-5,3.72 c -8e-6,3.480893 -0.01081,3.719657 -0.168009,3.714649 -0.0924,-0.0029 -1.0752,-0.318948 -2.184,-0.702231 z m 2.064,-1.892417 c 0,-1.166001 -0.0324,-2.103323 -0.072,-2.082938 -0.917211,0.472137 -1.87335,0.59014 -2.484082,0.306573 -0.601173,-0.279129 -1.515254,-1.294239 -1.953032,-2.168892 -0.424362,-0.847851 -0.466171,-1.116495 -0.229882,-1.477117 0.08635,-0.131791 0.140352,-0.254146 0.12,-0.271902 -0.02035,-0.01775 -0.605751,-0.320147 -1.300885,-0.671984 -1.381574,-0.69927 -2.204837,-1.250522 -2.299577,-1.539782 -0.07301,-0.222909 0.262531,-0.534444 0.574093,-0.533021 0.296876,0.0014 0.989308,0.344441 2.461365,1.219553 1.549397,0.921091 1.983547,1.145656 2.674411,1.383348 0.568932,0.195742 1.500329,0.24153 1.600961,0.07871 0.125935,-0.203767 -0.06544,-0.575908 -0.636544,-1.237822 l -0.583885,-0.676722 h 0.369862 c 0.31714,0 0.460829,0.0821 1.008061,0.576 0.351012,0.3168 0.663612,0.576 0.694668,0.576 0.03106,0 0.05647,-0.517856 0.05647,-1.150793 V 49.19775 l -0.68283,-0.343868 c -1.093946,-0.550901 -2.382247,-1.098546 -2.584266,-1.098546 -0.177049,0 -0.173735,0.02793 0.06551,0.552 0.625121,1.369376 0.723032,1.663312 0.602452,1.808602 -0.121163,0.145993 -0.223688,0.132422 -0.918907,-0.121628 -0.380732,-0.139128 -0.419024,-0.192032 -0.880299,-1.216215 -0.761637,-1.691087 -0.837445,-2.205914 -0.343093,-2.329988 0.282949,-0.07102 0.68358,0.07407 2.473444,0.895737 0.732603,0.336314 1.347658,0.595827 1.366789,0.576697 0.01913,-0.01913 -0.199781,-0.319155 -0.486469,-0.666721 -0.363937,-0.441218 -0.628867,-0.667455 -0.877824,-0.749618 -0.71969,-0.23752 -2.274975,-2.124088 -2.710307,-3.287617 -0.343824,-0.918952 -0.357665,-1.176506 -0.07825,-1.455927 0.29325,-0.29325 0.686757,-0.321066 0.82729,-0.05848 0.09287,0.173525 0.12368,0.176947 0.432294,0.048 0.182764,-0.07636 0.370903,-0.138843 0.418087,-0.138843 0.04718,0 0.404431,0.216 0.793884,0.48 0.487663,0.330575 0.804544,0.48 1.017917,0.48 0.420034,0 0.56192,-0.2625 0.378792,-0.70079 -0.179833,-0.430399 -0.71418,-1.02721 -0.919701,-1.02721 -0.474994,0 -2.047709,-1.468515 -2.595295,-2.423344 -0.338486,-0.590219 -0.372808,-1.047067 -0.09922,-1.320656 0.25404,-0.25404 0.580597,-0.242269 1.131191,0.04078 0.899187,0.462244 1.37448,1.147357 0.884809,1.275409 -0.1056,0.02761 -0.192,0.06862 -0.192,0.09111 0,0.08112 0.747191,1.044992 0.951639,1.227605 0.309384,0.276342 0.857128,0.234135 1.133663,-0.08736 0.40238,-0.467795 0.224755,-1.162092 -0.587797,-2.297585 -0.349208,-0.487997 -0.49993,-0.61418 -0.901535,-0.754756 -0.724269,-0.253521 -1.836977,-1.33188 -2.272411,-2.20226 -0.416782,-0.833099 -0.447288,-1.321942 -0.103923,-1.665307 0.649745,-0.649745 1.875142,0.206995 2.742362,1.917329 0.466517,0.920068 0.667166,1.026598 1.106365,0.587398 0.283239,-0.283239 0.293391,-0.539807 0.04318,-1.091164 -0.344284,-0.758644 -0.869018,-1.338544 -1.53554,-1.696972 -1.478289,-0.794964 -2.136206,-1.575957 -1.782437,-2.115878 0.08517,-0.129992 0.213174,-0.23635 0.284443,-0.23635 0.07127,0 0.426673,0.244226 0.789787,0.542725 0.363114,0.298498 0.789807,0.622337 0.948207,0.719641 0.68905,0.423279 0.472346,0.09529 -0.691336,-1.046366 -1.2302,-1.206914 -1.852664,-1.996257 -1.852664,-2.349357 0,-0.200132 0.508679,-0.458643 0.902483,-0.458643 0.143329,0 0.494724,0.207838 0.891084,0.527046 0.875368,0.704977 1.61439,1.095397 1.773079,0.936708 0.154178,-0.154178 -0.03894,-0.552117 -0.622509,-1.282729 -0.442502,-0.554002 -2.052565,-1.841397 -2.193773,-1.754125 -0.04349,0.02688 -0.06016,0.143419 -0.03704,0.258984 0.158741,0.793608 0.155245,0.834116 -0.07197,0.834116 -0.119816,0 -0.453536,-0.1404 -0.7416,-0.312 -0.626004,-0.372911 -0.859392,-0.774786 -0.859605,-1.48017 -9.6e-5,-0.461505 -0.02315,-0.510389 -0.329435,-0.699681 -0.181108,-0.111931 -0.464267,-0.357243 -0.629241,-0.545139 -0.239228,-0.272466 -0.294033,-0.412462 -0.270712,-0.69152 0.03889,-0.465392 0.27606,-0.503291 0.752673,-0.120274 0.464305,0.373125 0.572567,0.372844 0.572567,-0.0015 0,-0.365137 0.05873,-0.349317 1.03778,0.27952 l 0.70178,0.450751 -0.05668,0.452963 c -0.05631,0.449959 -0.05396,0.454684 0.354219,0.712649 0.76836,0.485594 1.637449,0.826352 2.138904,0.838633 0.456726,0.01119 0.481485,-0.0012 0.510621,-0.254775 0.02214,-0.192752 -0.08839,-0.433315 -0.399326,-0.869046 -0.23647,-0.331384 -0.498649,-0.659535 -0.58262,-0.729224 -0.23557,-0.195506 -0.182526,-0.2952 0.157067,-0.2952 0.255979,0 0.430942,0.120391 1.008,0.693597 l 0.698258,0.693598 v -3.342447 c 0,-3.197093 -0.0084,-3.353071 -0.192,-3.586544 -0.590747,-0.751013 0.274314,-1.776064 1.126815,-1.335219 0.558593,0.28886 0.635948,1.00809 0.162038,1.50659 l -0.233453,0.245566 0.0243,15.063668 0.0243,15.063668 0.845762,0.493242 c 1.57409,0.917997 2.172134,1.494501 1.838004,1.771805 -0.09444,0.07838 -0.305976,0.09955 -0.621471,0.06218 -0.263062,-0.03116 -0.478295,-0.03961 -0.478295,-0.0188 0,0.02082 0.262439,0.177727 0.583198,0.34869 0.320759,0.170962 0.711043,0.465096 0.867298,0.653629 0.387682,0.467769 0.602056,1.241775 0.538391,1.943887 -0.02787,0.307396 -0.0165,0.558901 0.02528,0.558901 0.244004,0 0.576189,-1.304751 0.577279,-2.267425 6.72e-4,-0.577709 -0.261279,-2.16081 -0.376597,-2.276128 -0.04392,-0.04392 -0.22195,0.118014 -0.395624,0.35985 -0.173674,0.241837 -0.346358,0.439703 -0.383743,0.439703 -0.145681,0 -0.287163,-0.281886 -0.446613,-0.889826 -0.154898,-0.590581 -0.155476,-0.656559 -0.0085,-0.964869 0.0868,-0.182016 0.295495,-0.487749 0.463773,-0.679406 0.294189,-0.335062 0.30184,-0.364828 0.198886,-0.773695 -0.148835,-0.591077 -0.134176,-0.888699 0.05996,-1.217344 0.149352,-0.252831 0.540584,-0.463244 0.652761,-0.351068 0.02357,0.02357 0.08666,0.273862 0.140207,0.556208 0.05355,0.282346 0.118821,0.534821 0.145057,0.561057 0.02623,0.02623 0.154208,-0.05236 0.284385,-0.174653 l 0.236684,-0.222353 0.106379,0.277974 c 0.05851,0.152886 0.173284,0.572969 0.255057,0.933516 l 0.148676,0.655542 -0.34891,0.357316 -0.348911,0.357317 0.226958,0.667143 c 0.313594,0.921807 0.681951,1.619772 0.97757,1.852306 0.460173,0.361972 0.658058,0.07751 0.80641,-1.159228 0.05238,-0.436665 0.06349,-0.941407 0.0247,-1.121648 -0.05926,-0.275342 -0.1142,-0.329623 -0.343766,-0.339672 -0.539141,-0.0236 -0.944466,-0.81469 -0.948003,-1.850255 -0.0024,-0.698469 0.352722,-1.071477 0.565687,-0.594203 0.08103,0.181601 0.13802,0.134875 0.61467,-0.504 0.604946,-0.810835 0.895011,-0.923644 1.375115,-0.534796 0.240635,0.194897 0.289648,0.328632 0.405101,1.105344 0.119373,0.803072 0.287429,1.306505 0.54322,1.627276 0.144822,0.181612 0.427247,-0.01847 0.538149,-0.381246 0.226303,-0.740273 0.222739,-1.009586 -0.01969,-1.488001 -0.650911,-1.284511 -0.544023,-3.065316 0.233015,-3.882153 0.367477,-0.386299 0.659697,-0.462067 0.85845,-0.222583 0.06573,0.0792 0.250509,0.144 0.410619,0.144 0.376132,0 0.912509,0.550425 1.267392,1.300587 0.293188,0.619749 0.427421,0.598933 0.503734,-0.07812 0.05869,-0.52072 -0.0814,-1.636043 -0.464574,-3.698671 -0.306774,-1.65137 -0.302908,-1.973793 0.0293,-2.4438 0.421942,-0.596958 0.768965,-0.191557 0.883393,1.032 0.06029,0.644633 0.40116,2.028848 0.538982,2.188686 0.03637,0.04218 0.09116,-0.309661 0.121747,-0.781863 0.06934,-1.070313 0.214392,-1.565862 0.553404,-1.890656 0.312005,-0.29892 0.510093,-0.238384 0.902214,0.275714 0.344543,0.451719 0.532049,1.050788 0.589858,1.884555 0.0839,1.210043 0.124073,1.380911 0.29193,1.241603 0.246549,-0.204617 0.410484,-0.615441 0.526915,-1.320461 l 0.111903,-0.677599 -0.340226,-0.69999 c -0.526022,-1.082251 -1.428618,-5.072087 -1.573332,-6.954757 -0.05786,-0.75272 -0.05054,-0.792677 0.188911,-1.032133 0.324574,-0.324574 0.600699,-0.319252 0.773116,0.0149 0.310272,0.601321 1.051548,4.116417 1.350823,6.405533 0.114124,0.872923 0.195217,1.194463 0.337006,1.336251 0.184958,0.184959 0.186182,0.172302 0.129848,-1.342391 -0.0895,-2.406438 0.0576,-3.015393 0.728404,-3.015393 0.482517,0 0.639268,0.244658 0.812065,1.267481 0.162857,0.963984 0.384356,1.568104 0.606147,1.653213 0.199398,0.07652 0.406253,-0.330753 0.494045,-0.972705 0.06554,-0.479222 0.04965,-0.644722 -0.08756,-0.912182 -0.364733,-0.710937 -0.597344,-2.800518 -0.376434,-3.381557 0.08093,-0.212864 0.150922,-0.24625 0.516245,-0.24625 0.232442,0 0.466887,0.054 0.52099,0.12 0.191391,0.233479 0.318084,0.952975 0.34776,1.974955 0.03877,1.335126 0.279528,1.848984 0.536489,1.145046 0.17648,-0.483463 0.237714,-2.727545 0.101604,-3.723544 -0.09304,-0.680797 -0.09344,-0.89755 -0.0019,-1.007889 0.237462,-0.286125 0.797463,-0.07585 1.031795,0.387432 0.05341,0.1056 0.292847,0.948 0.532073,1.872 0.63043,2.435002 0.628168,2.433584 0.635198,0.398233 0.0084,-2.444798 -0.152288,-4.45952 -0.397676,-4.98474 -0.227903,-0.487795 -0.174599,-0.816618 0.168856,-1.041659 0.228701,-0.14985 0.253758,-0.147855 0.454476,0.0362 0.116835,0.107135 0.437635,0.307475 0.712885,0.445202 0.612308,0.306378 1.137248,0.756116 1.345817,1.153018 0.09712,0.184818 0.179167,0.661867 0.21632,1.25775 l 0.05985,0.96 0.223286,-0.474124 c 0.324309,-0.688632 0.373767,-1.556438 0.118874,-2.085761 -0.523345,-1.086806 -0.647728,-2.418933 -0.277307,-2.969918 0.231078,-0.343717 0.566259,-0.462808 0.786988,-0.27962 0.230006,0.190889 0.447243,0.980476 0.521708,1.896242 0.07851,0.965564 0.234809,1.273181 0.646884,1.273181 0.661781,0 1.046939,-1.397246 0.617401,-2.23976 -0.379104,-0.74359 -0.340588,-2.976507 0.06561,-3.803384 0.09136,-0.185988 0.284915,-0.403566 0.430115,-0.483507 0.235107,-0.129442 0.292894,-0.129556 0.528,-0.001 0.527027,0.288081 0.970593,1.741911 0.658926,2.159693 -0.121325,0.162634 -0.172812,0.173946 -0.336629,0.07397 -0.106367,-0.06492 -0.214019,-0.08467 -0.239225,-0.04388 -0.02521,0.04078 -0.07605,0.446621 -0.112989,0.901859 -0.06522,0.803802 -0.05999,0.834873 0.181016,1.07588 0.769429,0.76943 1.666085,-0.198218 1.850361,-1.996862 0.05029,-0.490869 0.02767,-0.642473 -0.137767,-0.923142 -0.492771,-0.836017 -0.656277,-2.471267 -0.304745,-3.047821 0.236944,-0.388615 0.683533,-0.435938 0.905956,-0.096 0.217022,0.331681 0.439096,1.29851 0.439096,1.911653 0,0.303222 0.05061,0.662382 0.112459,0.798131 0.116261,0.255168 0.451665,0.400153 0.702777,0.303793 0.241705,-0.09275 0.51602,-0.646146 0.581979,-1.174071 0.09148,-0.732162 -0.201277,-4.188075 -0.384848,-4.543064 -0.192805,-0.372842 -0.18862,-0.764843 0.01051,-0.984883 0.173813,-0.192062 0.466679,-0.23237 0.562448,-0.07741 0.03336,0.05398 0.327512,0.231253 0.653666,0.393935 0.703681,0.350991 1.159272,0.758322 1.436032,1.283917 0.15917,0.302279 0.203349,0.562712 0.207588,1.22375 0.003,0.461863 0.03287,0.839863 0.06645,0.84 0.109602,4.8e-4 0.371084,-0.646315 0.468079,-1.157765 0.137218,-0.723545 0.117244,-1.552489 -0.06115,-2.537985 -0.08602,-0.4752 -0.172245,-0.881735 -0.191606,-0.903412 -0.06058,-0.06782 -0.433679,0.314664 -0.576674,0.591185 -0.07515,0.145325 -0.181157,0.264227 -0.23557,0.264227 -0.130569,0 -0.436744,-0.715004 -0.515699,-1.204308 -0.07854,-0.486746 0.03622,-0.792751 0.482626,-1.286869 0.344418,-0.38123 0.349429,-0.39796 0.244284,-0.81553 -0.05904,-0.234473 -0.107347,-0.53893 -0.107347,-0.676571 0,-0.335968 0.242591,-0.785665 0.497394,-0.922031 0.275967,-0.147694 0.417198,0.04547 0.502302,0.687015 l 0.06397,0.482202 0.256951,-0.202117 c 0.33579,-0.264133 0.412701,-0.161342 0.647065,0.864798 l 0.177162,0.775684 -0.343877,0.356864 -0.343876,0.356863 0.26321,0.768 c 0.32946,0.961308 0.437744,1.170876 0.806055,1.56 0.348523,0.368218 0.491475,0.38834 0.681981,0.096 0.117733,-0.180662 0.343667,-1.487155 0.343667,-1.987295 0,-0.09948 0.08204,-0.06235 0.264,0.119483 0.249696,0.249525 0.2666,0.322891 0.312,1.35403 l 0.048,1.090212 1.030192,-1.081057 1.030192,-1.081056 -1.078192,-1.04395 C 73.41744,7.4843918 64.255938,3.068943 54.493338,1.6832094 50.272256,1.0840559 45.728809,1.0484126 41.533338,1.581538 25.936793,3.5634172 12.382797,13.090895 5.9595608,26.58733 c -1.099451,2.310155 -2.395877,5.854535 -2.238451,6.119845 0.03921,0.06609 0.380806,0.487355 0.759096,0.936155 0.762152,0.904209 3.42896,4.151891 6.1881272,7.536001 2.237133,2.743836 5.420066,5.926916 8.949517,8.949928 4.175363,3.576244 8.404482,6.254244 12.916853,8.179328 1.198126,0.511149 4.7722,1.819356 4.990635,1.826707 0.0925,0.0031 0.12,-0.481809 0.12,-2.115962 z M 30.899798,46.80038 c -0.549205,-0.349028 -0.726435,-0.665164 -0.567928,-1.013049 0.132733,-0.291317 0.519555,-0.313594 1.159574,-0.06678 0.580291,0.223782 0.837074,0.580706 0.718049,0.99808 -0.0805,0.282268 -0.131729,0.319735 -0.471235,0.344611 -0.290549,0.02129 -0.489469,-0.04107 -0.83846,-0.262862 z m 1.076721,0.04876 c 0.06308,-0.07601 0.100771,-0.259607 0.08376,-0.408 -0.02447,-0.213374 -0.126121,-0.317021 -0.486026,-0.495551 -0.250299,-0.124161 -0.595899,-0.232161 -0.768,-0.24 -0.275772,-0.01256 -0.316583,0.01777 -0.343848,0.255551 -0.03875,0.337915 0.09475,0.500283 0.648625,0.788874 0.512102,0.26683 0.707718,0.289234 0.865493,0.09913 z M 64.684343,24.414607 c -0.21656,-0.125884 -0.447005,-0.652803 -0.447005,-1.022092 0,-0.723412 0.872467,-0.942566 1.203551,-0.302319 0.419975,0.812141 -0.09298,1.71013 -0.756546,1.324411 z m 0.589795,-0.198477 c 0.164007,-0.164006 0.142595,-0.858967 -0.03424,-1.111439 -0.192352,-0.274621 -0.57668,-0.278985 -0.721603,-0.0082 -0.06039,0.112842 -0.08536,0.3558 -0.05548,0.539906 0.09194,0.566533 0.519214,0.871841 0.811327,0.579727 z m 4.652646,-5.174175 c -0.461305,-0.170647 -0.686787,-1.236756 -0.329886,-1.559746 0.355051,-0.321317 0.892952,-0.152495 1.062343,0.333419 0.281775,0.8083 -0.10626,1.457973 -0.732457,1.226327 z m 0.506223,-0.248008 c 0.231559,-0.23156 0.138446,-0.97024 -0.151943,-1.205383 -0.188409,-0.152564 -0.240562,-0.15766 -0.417515,-0.04079 -0.292788,0.193375 -0.322739,0.809458 -0.05584,1.148759 0.235124,0.298912 0.398371,0.324344 0.625302,0.09741 z M 40.037636,58.012512 c 0.743436,-0.77375 1.351702,-1.43255 1.351702,-1.464 0,-0.03145 -0.11596,-0.05718 -0.257691,-0.05718 -0.329354,0 -0.992777,-0.320065 -1.26579,-0.610674 -0.188641,-0.200799 -0.226614,-0.41325 -0.353353,-1.976945 -0.09717,-1.198881 -0.187013,-1.816234 -0.284583,-1.955536 -0.207825,-0.296712 -0.179335,-0.796093 0.05902,-1.034445 0.11088,-0.11088 0.16488,-0.232063 0.12,-0.269296 -0.240494,-0.199517 -0.796165,-0.585104 -0.843195,-0.585104 -0.02992,0 -0.05441,2.1204 -0.05441,4.712 0,2.826512 0.03533,4.699195 0.0883,4.68 0.04856,-0.0176 0.696563,-0.665069 1.44,-1.43882 z m -2.392757,-3.897181 -4.8e-4,-0.744 -0.785987,-0.02068 -0.785987,-0.02068 0.760194,0.764678 c 0.418107,0.420574 0.772008,0.764679 0.786446,0.764679 0.01444,0 0.02605,-0.3348 0.02579,-0.744 z m 6.479716,-0.53928 c -0.05239,-0.07176 -0.257257,-0.362607 -0.455257,-0.646319 l -0.36,-0.515838 -6.72e-4,0.478719 c -3.84e-4,0.263295 -0.02697,0.781118 -0.0591,1.150718 l -0.05842,0.672 0.514358,-0.504399 c 0.384529,-0.377085 0.490313,-0.537334 0.4191,-0.634881 z M 47.47283,50.03273 c -0.605048,-0.320562 -1.007933,-0.954216 -1.27477,-2.004951 l -0.169878,-0.668935 -0.291195,0.447653 c -0.279313,0.429388 -0.286128,0.464488 -0.167028,0.860229 0.06829,0.226916 0.155645,1.073869 0.194117,1.882116 l 0.06995,1.469541 0.909147,-0.945278 c 0.810091,-0.842285 0.889591,-0.955641 0.729656,-1.040375 z m 0.577106,-0.161063 c 0.339012,-0.128893 0.460959,-0.632753 0.425197,-1.756824 -0.03189,-1.002175 -0.176946,-1.248303 -0.288393,-0.489321 -0.08675,0.590783 -0.351331,0.945809 -0.704862,0.945809 -0.22572,0 -0.307254,-0.07322 -0.490342,-0.440358 -0.120781,-0.242197 -0.265867,-0.760597 -0.322412,-1.152 -0.15611,-1.080597 -0.166718,-1.10752 -0.499947,-1.268908 -0.383355,-0.185664 -0.406598,-0.168908 -1.146335,0.826389 l -0.556773,0.749122 -0.134557,-0.317122 -0.134556,-0.317123 -0.115093,0.288 c -0.0888,0.222215 -0.08937,0.419291 -0.0025,0.862774 0.189311,0.966397 0.47095,1.307801 0.952721,1.154893 0.156413,-0.04964 0.197399,-1.4e-5 0.25231,0.30553 0.03606,0.200642 0.101908,0.429603 0.146332,0.508803 0.136659,0.24364 0.0999,-0.597329 -0.04752,-1.087176 l -0.134133,-0.445691 0.440607,-0.688674 0.440607,-0.688674 0.17022,0.791257 c 0.283693,1.318741 0.688079,2.000923 1.328832,2.241691 0.0792,0.02976 0.151988,0.05752 0.16175,0.06169 0.0098,0.0042 0.126244,-0.03367 0.258848,-0.08408 z m 1.740795,-2.114082 c -0.0334,-0.05404 -0.145962,-0.09825 -0.250142,-0.09825 -0.10418,0 -0.33923,-0.0626 -0.522334,-0.139101 l -0.332917,-0.139102 0.0018,0.835102 0.0018,0.835101 0.581244,-0.597746 c 0.319684,-0.32876 0.553918,-0.64196 0.52052,-0.696 z m -12.187159,-1.61202 c -0.02728,-0.02728 -0.109178,-1.92e-4 -0.182003,0.0603 -0.07282,0.06044 -0.288112,0.163795 -0.478416,0.22968 -0.190304,0.06588 -0.358564,0.147223 -0.373912,0.18075 -0.01535,0.03353 0.209697,0.33437 0.500097,0.66854 l 0.528,0.60758 0.02791,-0.848625 c 0.01535,-0.466745 0.0056,-0.870944 -0.02168,-0.89822 z m 12.758473,1.281329 c 0.455143,-0.190171 0.627293,-0.575732 0.627293,-1.404937 0,-0.583027 0.03448,-0.727893 0.228029,-0.957906 0.261423,-0.310685 0.411714,-0.931377 0.261814,-1.081277 -0.06873,-0.06873 -0.117526,-0.04257 -0.157622,0.0845 -0.109249,0.346243 -0.207905,0.472063 -0.390025,0.49742 -0.138432,0.01927 -0.23618,-0.100092 -0.406942,-0.496937 -0.12361,-0.287268 -0.379214,-0.702766 -0.568009,-0.92333 -0.303974,-0.355126 -0.379392,-0.395163 -0.658923,-0.349801 -0.253821,0.04119 -0.32718,0.01493 -0.374461,-0.134037 -0.163083,-0.513829 -0.900951,0.14431 -1.159706,1.034395 -0.171041,0.588363 -0.144319,1.563821 0.06234,2.2756 0.139521,0.480541 0.904753,1.27545 1.396534,1.450696 0.48375,0.172383 0.737541,0.173633 1.139676,0.0056 z m -1.27075,-0.895563 c -0.155196,-0.198 -0.331626,-0.45436 -0.392067,-0.569689 -0.137627,-0.262616 -0.141856,-1.255391 -0.0085,-2.00468 0.177919,-0.999959 0.190882,-1.006302 0.465655,-0.227837 0.290639,0.823418 0.66961,1.370581 1.072929,1.549107 0.303953,0.134542 0.340616,0.299233 0.186356,0.837105 -0.23467,0.818248 -0.856049,1.013433 -1.324335,0.415994 z m 1.125038,-0.384154 c 0.144114,-0.51893 0.141994,-0.524925 -0.323004,-0.913615 C 49.643606,45.024819 49.3595,44.65467 49.202145,44.333049 l -0.267174,-0.546085 -0.07797,0.280183 c -0.04289,0.154101 -0.08286,0.590333 -0.08884,0.969404 -0.01131,0.717809 0.107864,1.031168 0.586888,1.543139 0.18995,0.203014 0.219671,0.207446 0.481892,0.07185 0.189073,-0.09777 0.311778,-0.260897 0.379391,-0.504359 z m 1.77199,-0.527846 c 0.346989,-0.3828 0.631368,-0.766767 0.631952,-0.853261 0.0024,-0.352766 -1.023039,-3.506638 -1.111392,-3.418284 -0.01904,0.01904 0.03222,0.572127 0.113911,1.229082 0.173663,1.396577 0.119659,2.05614 -0.207871,2.538783 -0.234935,0.346196 -0.338474,1.19968 -0.145538,1.19968 0.04843,0 0.371949,-0.3132 0.718938,-0.696 z m -15.391133,-0.072 c 0.369872,0 -0.383563,-1.090426 -1.253891,-1.81472 -0.701471,-0.583771 -1.441961,-1.099154 -1.441961,-1.003608 0,0.179001 1.040412,1.92265 1.371982,2.299333 0.353594,0.401704 0.83217,0.642849 1.10787,0.558234 0.07032,-0.02158 0.167518,-0.03924 0.216,-0.03924 z m 1.048148,-1.236112 v -0.564113 l -0.504,-0.04736 c -0.2772,-0.02605 -0.5904,-0.0806 -0.696,-0.121243 -0.1056,-0.04064 0.109241,0.234523 0.477425,0.611468 0.368184,0.376946 0.681384,0.685356 0.696,0.685356 0.01462,0 0.02658,-0.253851 0.02658,-0.564112 z m -0.03773,-3.729617 c -0.04045,-0.04044 -0.896601,0.237828 -1.012648,0.329137 -0.02331,0.01834 0.192694,0.271635 0.48,0.562883 l 0.522376,0.529541 0.02844,-0.687478 c 0.01564,-0.378112 0.0075,-0.708449 -0.01817,-0.734083 z m 19.140345,0.07301 c -7.68e-4,-0.0282 -0.211579,-0.167174 -0.468487,-0.308823 l -0.467103,-0.257544 -0.05846,0.353544 c -0.03215,0.194449 -0.05893,0.568068 -0.05951,0.830264 l -0.0011,0.476721 0.528,-0.521441 c 0.2904,-0.286793 0.527378,-0.544517 0.526617,-0.572721 z m 0.314283,-0.411279 c 0.02499,-0.066 -0.03573,-0.66 -0.134944,-1.32 -0.09921,-0.66 -0.187905,-1.4808 -0.197095,-1.824 -0.01641,-0.612964 0.09361,-1.493533 0.176279,-1.410862 0.02314,0.02314 0.147667,0.436634 0.276722,0.91887 0.426249,1.592756 1.065865,2.496293 1.57445,2.224106 0.285701,-0.152903 0.407689,-0.684913 0.407689,-1.778019 0,-1.244425 -0.107956,-1.472566 -0.272285,-0.575417 -0.145938,0.796737 -0.400897,1.099444 -0.741505,0.88037 -0.315527,-0.202942 -0.515868,-0.705067 -0.697046,-1.747048 -0.09181,-0.528 -0.212428,-0.991739 -0.268044,-1.030531 -0.05562,-0.03879 -0.214631,-0.07119 -0.353367,-0.072 -0.489571,-0.0029 -0.516553,0.130502 -0.506427,2.50289 l 0.0093,2.185104 -0.358389,-0.288009 c -0.348611,-0.280151 -0.361513,-0.313347 -0.472895,-1.216732 -0.26265,-2.130275 -1.072788,-6.127665 -1.34493,-6.636166 -0.128175,-0.239497 -0.318193,-0.251088 -0.53655,-0.03273 -0.140089,0.14009 -0.155004,0.288096 -0.102942,1.021552 0.09276,1.306817 0.947557,5.328903 1.375937,6.47422 0.08467,0.226378 0.287861,0.521195 0.451532,0.655151 0.163671,0.133954 0.365621,0.359136 0.448777,0.500404 0.299297,0.508454 1.144698,0.888404 1.265707,0.568849 z m 0.791496,-0.744403 0.473178,-0.480401 -0.216788,-0.151844 c -0.31768,-0.222513 -0.656983,-0.806315 -0.916462,-1.576863 -0.125707,-0.373297 -0.260824,-0.70927 -0.300261,-0.746606 -0.08338,-0.07894 7.68e-4,0.869732 0.197826,2.229026 0.07596,0.5241 0.138111,1.0101 0.138111,1.08 0,0.219304 0.136426,0.142109 0.624396,-0.353312 z M 37.625777,36.568257 c -0.05629,-0.05532 -0.949863,0.208233 -0.955574,0.281839 -0.0032,0.04144 0.204074,0.3188 0.460644,0.616353 l 0.466491,0.541005 0.02844,-0.705623 c 0.01564,-0.388092 0.01564,-0.718201 0,-0.733574 z m 22.958931,0.05107 c 2.88e-4,-0.0264 -0.279349,-0.137077 -0.621421,-0.24595 l -0.621949,-0.197948 0.0038,0.917948 0.0038,0.91795 0.617641,-0.672 c 0.339703,-0.3696 0.617878,-0.6936 0.618168,-0.72 z m 1.090543,-1.807962 c -0.09565,-0.325474 -0.206313,-0.591832 -0.245913,-0.591905 -0.0396,-7.4e-5 -0.072,0.376884 -0.072,0.837684 v 0.837819 l 0.245913,-0.245912 0.245913,-0.245913 z m -24.029913,-1.7465 V 32.2944 l -0.283233,0.146465 c -0.155778,0.08056 -0.369228,0.146465 -0.474334,0.146465 -0.344504,0 -0.298181,0.154059 0.209267,0.695972 0.275164,0.293853 0.5111,0.538272 0.5243,0.543153 0.0132,0.0049 0.024,-0.337834 0.024,-0.76159 z m 26.88,-0.487223 c 0,-0.03478 -0.2484,-0.08402 -0.552,-0.109427 -0.3036,-0.02541 -0.622598,-0.0765 -0.708884,-0.113544 -0.135692,-0.05825 -0.151278,-0.0049 -0.115378,0.394654 0.02283,0.254103 0.06419,0.608824 0.09191,0.788269 l 0.0504,0.326263 0.616975,-0.61149 c 0.339335,-0.336319 0.616973,-0.639946 0.616973,-0.674725 z m 0.517965,-0.453932 c 0.622079,-0.358925 0.917895,-1.189421 0.920536,-2.58438 0.0017,-0.907499 -0.133267,-1.054049 -0.228051,-0.247588 -0.07963,0.677487 -0.330617,1.246149 -0.704875,1.597005 l -0.287387,0.269415 0.04789,-0.915596 c 0.08017,-1.532699 -0.236505,-2.146779 -1.413456,-2.740902 -0.307181,-0.155064 -0.630181,-0.353606 -0.717778,-0.441203 -0.148356,-0.148356 -0.172132,-0.147625 -0.347056,0.01068 -0.233207,0.211049 -0.234447,0.333926 -0.0085,0.841456 0.130457,0.293023 0.210753,0.847313 0.294756,2.034733 l 0.115455,1.632 0.387597,0.35468 c 0.213178,0.195074 0.480138,0.374364 0.593244,0.398421 0.340076,0.07233 1.051456,-0.03785 1.347612,-0.208721 z m -2.093276,-1.096183 c -0.112244,-0.728766 -0.126863,-2.563574 -0.01992,-2.500209 0.350637,0.207759 1.188574,0.853735 1.330254,1.025511 0.26567,0.322102 0.370594,0.818273 0.259938,1.229215 -0.09674,0.359281 -0.09884,0.360533 -0.509874,0.304195 -0.285658,-0.03915 -0.505031,-0.0088 -0.712522,0.09846 l -0.299791,0.155029 z m 1.439225,-0.416677 c 0.08826,-0.470396 -0.168565,-0.933391 -0.769404,-1.387029 -0.29678,-0.22407 -0.550735,-0.390547 -0.564345,-0.369946 -0.01361,0.0206 -0.0088,0.494152 0.01079,1.052337 l 0.03554,1.014881 0.615894,-0.0069 c 0.610306,-0.0068 0.616399,-0.0096 0.671527,-0.303362 z M 37.645338,30.977705 V 30.32808 l -0.399321,-0.01047 c -0.274394,-0.0072 -0.668319,-0.150863 -1.259152,-0.459223 -0.472907,-0.246814 -0.875344,-0.433239 -0.894304,-0.414279 -0.06316,0.06315 0.958706,1.002211 1.736777,1.59604 0.4224,0.322379 0.7788,0.586377 0.792,0.586663 0.0132,2.88e-4 0.024,-0.291811 0.024,-0.649106 z m 29.76,-1.3878 c 0,-0.04102 -0.05748,-0.07458 -0.127729,-0.07458 -0.07025,0 -0.338133,-0.106518 -0.595292,-0.236709 -0.257158,-0.13019 -0.474466,-0.22739 -0.482907,-0.216 -0.0084,0.01139 -0.0424,0.450995 -0.07546,0.976898 l -0.06012,0.95619 0.670754,-0.665615 c 0.368915,-0.366088 0.670754,-0.699173 0.670754,-0.740189 z m 0.657559,-0.491202 c 0.116065,-0.123546 0.253195,-0.37166 0.304734,-0.551367 0.104359,-0.363875 0.110051,-1.449032 0.0095,-1.808888 -0.115694,-0.41401 -0.271168,-0.324358 -0.340221,0.196181 -0.116207,0.876015 -0.52712,1.380398 -1.071863,1.315677 -0.448037,-0.05323 -0.6251,-0.421826 -0.712065,-1.482307 -0.124073,-1.513017 -0.467507,-2.069307 -0.939067,-1.521086 -0.221631,0.257662 -0.233716,0.326361 -0.184367,1.048076 0.07233,1.057775 0.2892,1.636673 0.823956,2.199405 0.762595,0.802491 1.677095,1.06448 2.109403,0.604309 z M 37.645338,27.97933 v -0.672 h -0.37193 c -0.204562,0 -0.550162,-0.06288 -0.768,-0.139741 -0.217839,-0.07686 -0.39607,-0.110214 -0.39607,-0.07412 0,0.06067 1.450955,1.557865 1.509748,1.557865 0.01444,0 0.02625,-0.3024 0.02625,-0.672 z m 32.06268,-0.76472 c -0.0014,-0.05456 -1.070534,-0.412965 -1.093619,-0.36662 -0.0075,0.01504 0.002,0.346147 0.02103,0.735799 l 0.03464,0.708458 0.519635,-0.513179 c 0.285799,-0.282248 0.519039,-0.536255 0.518313,-0.564458 z m 2.681383,-3.102817 c -0.191293,-0.07244 -0.611872,-0.259428 -0.976062,-0.433959 -0.0396,-0.01898 -0.07056,0.390296 -0.06881,0.909496 l 0.0032,0.944 0.636869,-0.66583 c 0.624813,-0.653224 0.632476,-0.667494 0.404808,-0.753707 z m 0.685255,-0.263308 c 0.372722,-0.199475 0.514112,-0.656255 0.51247,-1.655604 -0.0012,-0.713201 -0.03683,-0.973737 -0.148567,-1.085473 -0.132032,-0.132033 -0.157652,-0.08289 -0.251254,0.481983 -0.170068,1.026328 -0.687758,1.51607 -1.261926,1.193799 -0.355971,-0.199802 -0.485025,-0.529298 -0.486625,-1.242436 -0.0016,-0.727166 -0.206682,-1.50646 -0.482008,-1.831883 l -0.190821,-0.225541 -0.25236,0.283382 c -0.242813,0.27266 -0.250455,0.316243 -0.202013,1.152 0.06418,1.107275 0.253695,1.617116 0.817647,2.199682 0.683069,0.705616 1.452,0.994181 1.945457,0.730091 z m 1.720418,-1.917592 0.364687,-0.432436 -0.445212,4.8e-4 c -0.244865,1.92e-4 -0.559963,-0.03177 -0.700215,-0.07114 l -0.255006,-0.07157 0.01501,0.811132 0.01501,0.811133 0.320524,-0.307561 c 0.176288,-0.169159 0.484633,-0.502158 0.685211,-0.739998 z m 0.677923,-0.791563 c 0.539344,-0.271976 0.822957,-0.767276 0.952481,-1.663409 0.122468,-0.847318 0.126519,-1.672591 0.0082,-1.672591 -0.05041,0 -0.118739,0.162 -0.151849,0.36 -0.144448,0.863799 -0.331953,1.329805 -0.664923,1.652532 l -0.3402,0.329735 0.05977,-0.859133 c 0.0968,-1.391389 -0.193769,-2.067672 -1.118364,-2.602945 -0.28863,-0.167094 -0.674889,-0.398351 -0.858353,-0.513902 -0.23655,-0.148986 -0.37616,-0.183419 -0.48,-0.118385 -0.210785,0.132011 -0.23772,0.503955 -0.06074,0.83873 0.103006,0.194843 0.195312,0.831582 0.282577,1.949255 l 0.129601,1.659886 0.327064,0.341727 c 0.179886,0.18795 0.413466,0.377863 0.519066,0.422029 0.357144,0.14937 0.960359,0.09598 1.395658,-0.123529 z m -2.06138,-2.192804 c -0.03777,-0.744043 -0.04676,-1.374715 -0.01998,-1.401494 0.07756,-0.07756 1.272877,0.811796 1.445818,1.075738 0.211421,0.322668 0.28418,0.734986 0.204578,1.159304 l -0.06595,0.351536 -0.431949,-0.0592 c -0.295699,-0.04053 -0.519213,-0.01408 -0.708605,0.08386 -0.152161,0.07869 -0.294339,0.143065 -0.31595,0.143065 -0.02161,0 -0.07019,-0.608762 -0.107963,-1.352804 z m 1.361722,0.916589 c 0.06892,-0.02169 0.12,-0.196461 0.12,-0.410575 0,-0.465899 -0.281862,-0.889133 -0.888,-1.333389 l -0.456,-0.334217 v 0.378714 c 0,0.208292 0.02736,0.702337 0.06079,1.097877 l 0.06079,0.719163 0.491209,-0.03991 c 0.270164,-0.02195 0.545208,-0.0569 0.611208,-0.07766 z m 2.433684,-0.438708 0.605457,-0.682923 -0.264076,-0.192367 c -0.145242,-0.1058 -0.384998,-0.40409 -0.53279,-0.662864 l -0.268713,-0.470499 -0.06463,1.081787 c -0.03555,0.594984 -0.09043,1.200589 -0.121973,1.345789 -0.03154,0.1452 -0.03516,0.264 -0.008,0.264 0.02712,0 0.32176,-0.307315 0.654762,-0.682923 z M 35.65218,55.371367 C 35.363895,55.269338 35.159795,55.105593 34.961294,54.817082 34.60134,54.293906 33.77491,52.64976 33.839448,52.585221 c 0.02696,-0.02696 0.21392,0.004 0.415458,0.06886 0.375093,0.120672 1.689595,1.372612 2.251367,2.144215 0.473703,0.650642 0.09087,0.907509 -0.854093,0.573071 z m 0.937158,-0.126465 c 0,-0.210614 -1.765553,-2.128826 -2.131009,-2.315269 l -0.381907,-0.194834 0.06711,0.222266 c 0.101606,0.336491 0.976573,1.846056 1.17308,2.023894 0.337911,0.305806 1.272722,0.499671 1.272722,0.263943 z m 3.456,-0.370637 c 0,-0.202986 -0.02831,-0.831774 -0.06291,-1.397305 l -0.06291,-1.02824 0.51249,0.317306 c 1.019572,0.631264 1.349772,1.170519 1.201311,1.961882 l -0.06539,0.348578 -0.449291,-0.05303 c -0.293957,-0.0347 -0.532265,-0.007 -0.68929,0.08002 -0.352284,0.195298 -0.384,0.176366 -0.384,-0.229212 z m 1.32,-0.06715 c 0.183778,-0.05783 0.143047,-0.724811 -0.06511,-1.066186 -0.158621,-0.260135 -0.942801,-0.897599 -1.104187,-0.897599 -0.07147,0 -0.06856,0.654846 0.0064,1.448711 l 0.05977,0.632711 0.491545,-0.03994 c 0.27035,-0.02197 0.545546,-0.05693 0.611546,-0.0777 z M 53.30314,44.317645 c -0.146126,-0.273039 -0.132379,-0.402315 0.04278,-0.402315 0.08172,0 0.249979,-0.109407 0.373906,-0.243127 0.202885,-0.218916 1.110357,-0.748027 1.173918,-0.684464 0.01421,0.0142 -0.314064,0.363725 -0.729488,0.776712 -0.708232,0.704077 -0.761912,0.738562 -0.861118,0.553194 z m -0.425168,-1.419152 c -0.133315,-0.452783 -0.256634,-1.372733 -0.256634,-1.914469 0,-0.69553 0.14118,-1.162741 0.391898,-1.296921 0.386546,-0.206873 0.785134,0.611728 0.914986,1.879156 0.05803,0.566365 0.04837,0.607827 -0.166644,0.715293 -0.125532,0.06274 -0.363563,0.268434 -0.528958,0.457091 -0.266382,0.303847 -0.306876,0.3221 -0.354648,0.15985 z m 0.690698,-0.70937 c 0.213827,-0.109746 0.223499,-0.151761 0.16281,-0.707236 -0.08734,-0.799455 -0.214243,-1.249894 -0.425686,-1.511015 l -0.177038,-0.218632 -0.171132,0.261179 c -0.146747,0.223966 -0.163756,0.407707 -0.119365,1.289545 0.02847,0.565602 0.08435,1.109231 0.124183,1.208067 0.06991,0.173488 0.07772,0.173047 0.225657,-0.01276 0.08428,-0.105856 0.255539,-0.244971 0.380571,-0.309144 z M 8.3516558,39.667331 c -2.100798,-2.298725 -5.266319,-6.126489 -5.266319,-6.368059 0,-0.07477 0.01946,-0.135942 0.04324,-0.135942 0.0364,0 2.904173,3.447077 4.520377,5.433519 0.262013,0.322036 0.749163,0.916036 1.082555,1.32 0.333392,0.403965 0.58665,0.734482 0.562797,0.734482 -0.02385,0 -0.448044,-0.4428 -0.942645,-0.984 z M 35.066469,35.440525 c -0.705801,-0.225606 -1.8623,-1.618426 -1.579033,-1.901692 0.35064,-0.35064 1.673619,0.805318 2.047676,1.789165 0.101008,0.265671 0.0493,0.278087 -0.468643,0.112527 z m -0.0477,-0.691955 c -0.454696,-0.684823 -1.405433,-1.380259 -1.405433,-1.028034 0,0.185312 0.571919,0.953671 0.890378,1.1962 0.351649,0.267805 0.757066,0.462077 0.828174,0.396852 0.0212,-0.01945 -0.119699,-0.273708 -0.313119,-0.565018 z M 2.3201788,32.430784 c -0.831494,-1.11147 -0.923376,-1.272015 -0.432359,-0.755454 0.626227,0.658805 0.934511,1.07702 0.890731,1.208358 -0.02027,0.0608 -0.226535,-0.143003 -0.458372,-0.452904 z"
       id="path117" />
  </g>
</svg>
