<svg id="Layer_1" data-name="Layer 1" xmlns="http://www.w3.org/2000/svg" viewBox="0 0 475.46 452.47"><defs><style>.cls-1,.cls-2{fill:#fff;}.cls-1,.cls-3,.cls-4{stroke:#231f20;stroke-miterlimit:10;}.cls-1,.cls-4{stroke-width:4px;}.cls-3,.cls-4{fill:none;}.cls-3{stroke-width:6px;}.cls-5{font-size:77.76px;}.cls-5,.cls-6,.cls-7{fill:#231f20;}.cls-5,.cls-6{font-family:BrushScriptMT, Brush Script MT;}.cls-6{font-size:79px;}</style></defs><title>aalogo</title><line class="cls-1" x1="204.18" y1="283.13" x2="204.18" y2="46.38"/><path class="cls-2" d="M6.76,121c.65-.47,16.09,17.67,59,70.74C29.63,154.28,5.9,121.58,6.76,121Z" transform="translate(-3.73 -3.65)"/><path class="cls-3" d="M65.94,191.9c25.19,31.15,59.78,74.24,106.4,132.55,28.73,36,62.11,77.9,100.66,126.36.89,1.14,1.81,2.29,2.73,3.43" transform="translate(-3.73 -3.65)"/><path class="cls-3" d="M65.78,191.71C29.63,154.28,5.9,121.58,6.76,121,7.41,120.5,22.85,138.64,65.78,191.71Z" transform="translate(-3.73 -3.65)"/><path class="cls-3" d="M65.78,191.71a.35.35,0,0,0,.16.19" transform="translate(-3.73 -3.65)"/><path class="cls-3" d="M303.55,311.68l-2.67-.54a828.26,828.26,0,0,1-89-23.55c-1.11-.38-2.23-.73-3.29-1.08-13-4.23-21.89-7.18-32.46-11.69-34.56-14.85-61-35.25-88.94-61.78C79.74,206,72.63,198.86,65.94,191.9" transform="translate(-3.73 -3.65)"/><polyline class="cls-4" points="167.25 322.2 168.6 320.81 204.88 282.86 472.57 3.14"/><text class="cls-5" transform="matrix(0.69, -0.72, 0.75, 0.66, 223.49, 266.97)">strophysicist</text><text class="cls-6" transform="matrix(0, -0.97, 1, 0, 203.08, 269.91)">djacent</text><path class="cls-7" d="M474.37,13.68c6.43,0,6.44-10,0-10s-6.45,10,0,10Z" transform="translate(-3.73 -3.65)"/><path class="cls-7" d="M208.19,57.85c6.44,0,6.45-10,0-10s-6.44,10,0,10Z" transform="translate(-3.73 -3.65)"/></svg>