<svg id="Layer_1" data-name="Layer 1" xmlns="http://www.w3.org/2000/svg" viewBox="0 0 18.18 18.12"><defs><style>.cls-1,.cls-3{fill:none;stroke:#231f20;stroke-miterlimit:10;}.cls-1{stroke-width:0.16px;}.cls-2{fill:#fff;}.cls-3{stroke-width:0.24px;}</style></defs><title>aalogo_touchmark</title><line class="cls-1" x1="7.83" y1="11.32" x2="7.83" y2="0.05"/><path class="cls-2" d="M41,65.4s.61.72,2.26,2.85A18.09,18.09,0,0,1,41,65.4Z" transform="translate(-40.9 -60.76)"/><path class="cls-3" d="M43.28,68.26c1,1.25,2.3,3,4.08,5.33l3.86,5.08.11.14" transform="translate(-40.9 -60.76)"/><path class="cls-3" d="M43.28,68.25A18.09,18.09,0,0,1,41,65.4S41.63,66.11,43.28,68.25Z" transform="translate(-40.9 -60.76)"/><path class="cls-3" d="M43.28,68.25h0" transform="translate(-40.9 -60.76)"/><path class="cls-3" d="M52.39,73.08l-.1,0a31.31,31.31,0,0,1-3.41-.94l-.13,0a13.06,13.06,0,0,1-1.24-.47,11.39,11.39,0,0,1-3.41-2.48c-.29-.29-.56-.57-.82-.85" transform="translate(-40.9 -60.76)"/><polyline class="cls-1" points="6.41 12.89 6.47 12.83 7.86 11.3 18.12 0.05"/></svg>